<svg xmlns="http://www.w3.org/2000/svg" viewBox="0 0 800 620" font-family="'Noto Sans TC', 'Microsoft JhengHei', sans-serif">
  <defs>
    <linearGradient id="mirror" x1="0" y1="0" x2="1" y2="1">
      <stop offset="0%" stop-color="#c0c0c0"/>
      <stop offset="30%" stop-color="#e8e8e8"/>
      <stop offset="50%" stop-color="#ffffff"/>
      <stop offset="70%" stop-color="#d0d0d0"/>
      <stop offset="100%" stop-color="#a8a8a8"/>
    </linearGradient>
    <linearGradient id="pet" x1="0" y1="0" x2="0" y2="1">
      <stop offset="0%" stop-color="#4a90d9"/>
      <stop offset="100%" stop-color="#2c5f9e"/>
    </linearGradient>
    <linearGradient id="acrylic" x1="0" y1="0" x2="0" y2="1">
      <stop offset="0%" stop-color="#e8f4f8" stop-opacity="0.9"/>
      <stop offset="100%" stop-color="#b8d4e3" stop-opacity="0.9"/>
    </linearGradient>
  </defs>
  <rect width="800" height="620" rx="16" fill="#fafafa"/>
  <text x="400" y="46" text-anchor="middle" font-size="24" font-weight="700" fill="#333">鏡面壓克力 印刷方式說明</text>
  <line x1="200" y1="58" x2="600" y2="58" stroke="#e0c08c" stroke-width="2"/>
  <rect x="30" y="76" width="740" height="240" rx="12" fill="#fff" stroke="#e0e0e0" stroke-width="1"/>
  <rect x="30" y="76" width="740" height="36" rx="12" fill="#3a7bd5"/>
  <rect x="30" y="96" width="740" height="16" fill="#3a7bd5"/>
  <text x="56" y="100" font-size="16" font-weight="600" fill="#fff">方式 1</text>
  <text x="400" y="100" text-anchor="middle" font-size="16" font-weight="600" fill="#fff">PET 彩白 ＋ 鏡面膜 ＋ 壓克力</text>
  <rect x="120" y="140" width="40" height="150" rx="4" fill="url(#pet)" stroke="#2c5f9e" stroke-width="1.5"/>
  <text x="140" y="200" text-anchor="middle" font-size="11" fill="#fff" transform="rotate(-90 140 200)">印刷 彩+白</text>
  <text x="140" y="302" text-anchor="middle" font-size="13" font-weight="600" fill="#2c5f9e">PET</text>
  <text x="210" y="220" text-anchor="middle" font-size="28" fill="#999">+</text>
  <rect x="260" y="140" width="24" height="150" rx="3" fill="url(#mirror)" stroke="#999" stroke-width="1.5"/>
  <line x1="268" y1="145" x2="268" y2="285" stroke="#ddd" stroke-width="0.5" stroke-dasharray="2,3"/>
  <line x1="276" y1="145" x2="276" y2="285" stroke="#eee" stroke-width="0.5" stroke-dasharray="3,2"/>
  <text x="272" y="302" text-anchor="middle" font-size="13" font-weight="600" fill="#666">鏡面膜</text>
  <text x="340" y="220" text-anchor="middle" font-size="28" fill="#999">+</text>
  <rect x="380" y="140" width="50" height="150" rx="4" fill="url(#acrylic)" stroke="#88b4cc" stroke-width="1.5"/>
  <text x="405" y="302" text-anchor="middle" font-size="13" font-weight="600" fill="#4a8aa5">壓克力</text>
  <text x="490" y="220" text-anchor="middle" font-size="28" fill="#999">→</text>
  <g transform="translate(540, 140)">
    <rect x="0" y="0" width="40" height="150" rx="4" fill="url(#pet)" stroke="#2c5f9e" stroke-width="1"/>
    <rect x="40" y="0" width="16" height="150" rx="0" fill="url(#mirror)" stroke="#999" stroke-width="1"/>
    <rect x="56" y="0" width="50" height="150" rx="4" fill="url(#acrylic)" stroke="#88b4cc" stroke-width="1"/>
    <text x="53" y="168" text-anchor="middle" font-size="12" fill="#555">組合成品</text>
    <line x1="20" y1="150" x2="20" y2="175" stroke="#2c5f9e" stroke-width="1"/>
    <text x="20" y="188" text-anchor="middle" font-size="10" fill="#2c5f9e">PET</text>
    <line x1="48" y1="150" x2="48" y2="175" stroke="#999" stroke-width="1"/>
    <text x="48" y="188" text-anchor="middle" font-size="10" fill="#666">鏡面膜</text>
    <line x1="81" y1="150" x2="81" y2="175" stroke="#88b4cc" stroke-width="1"/>
    <text x="81" y="188" text-anchor="middle" font-size="10" fill="#4a8aa5">壓克力</text>
  </g>
  <rect x="30" y="340" width="740" height="260" rx="12" fill="#fff" stroke="#e0e0e0" stroke-width="1"/>
  <rect x="30" y="340" width="740" height="36" rx="12" fill="#d97a3a"/>
  <rect x="30" y="360" width="740" height="16" fill="#d97a3a"/>
  <text x="56" y="364" font-size="16" font-weight="600" fill="#fff">方式 2（預設方案）</text>
  <text x="400" y="364" text-anchor="middle" font-size="16" font-weight="600" fill="#fff">PET 彩白 ＋ 壓克力 ＋ 鏡面膜</text>
  <rect x="120" y="400" width="40" height="150" rx="4" fill="url(#pet)" stroke="#2c5f9e" stroke-width="1.5"/>
  <text x="140" y="460" text-anchor="middle" font-size="11" fill="#fff" transform="rotate(-90 140 460)">印刷 彩+白</text>
  <text x="140" y="562" text-anchor="middle" font-size="13" font-weight="600" fill="#2c5f9e">PET</text>
  <text x="210" y="480" text-anchor="middle" font-size="28" fill="#999">+</text>
  <rect x="255" y="400" width="50" height="150" rx="4" fill="url(#acrylic)" stroke="#88b4cc" stroke-width="1.5"/>
  <text x="280" y="562" text-anchor="middle" font-size="13" font-weight="600" fill="#4a8aa5">壓克力</text>
  <text x="355" y="480" text-anchor="middle" font-size="28" fill="#999">+</text>
  <rect x="395" y="400" width="24" height="150" rx="3" fill="url(#mirror)" stroke="#999" stroke-width="1.5"/>
  <line x1="403" y1="405" x2="403" y2="545" stroke="#ddd" stroke-width="0.5" stroke-dasharray="2,3"/>
  <line x1="411" y1="405" x2="411" y2="545" stroke="#eee" stroke-width="0.5" stroke-dasharray="3,2"/>
  <text x="407" y="562" text-anchor="middle" font-size="13" font-weight="600" fill="#666">鏡面膜</text>
  <text x="490" y="480" text-anchor="middle" font-size="28" fill="#999">→</text>
  <g transform="translate(540, 400)">
    <rect x="0" y="0" width="40" height="150" rx="4" fill="url(#pet)" stroke="#2c5f9e" stroke-width="1"/>
    <rect x="40" y="0" width="50" height="150" rx="0" fill="url(#acrylic)" stroke="#88b4cc" stroke-width="1"/>
    <rect x="90" y="0" width="16" height="150" rx="3" fill="url(#mirror)" stroke="#999" stroke-width="1"/>
    <text x="53" y="168" text-anchor="middle" font-size="12" fill="#555">組合成品</text>
    <line x1="20" y1="150" x2="20" y2="175" stroke="#2c5f9e" stroke-width="1"/>
    <text x="20" y="188" text-anchor="middle" font-size="10" fill="#2c5f9e">PET</text>
    <line x1="65" y1="150" x2="65" y2="175" stroke="#88b4cc" stroke-width="1"/>
    <text x="65" y="188" text-anchor="middle" font-size="10" fill="#4a8aa5">壓克力</text>
    <line x1="98" y1="150" x2="98" y2="175" stroke="#999" stroke-width="1"/>
    <text x="98" y="188" text-anchor="middle" font-size="10" fill="#666">鏡面膜</text>
  </g>
</svg>